<svg width="25" height="25" viewBox="0 0 25 25" fill="none" xmlns="http://www.w3.org/2000/svg">
<path d="M19.0593 15.221V23.3808M14.9795 19.3009H23.1392M17.1554 9.78119H20.9633C21.7249 9.78119 22.1058 9.78119 22.3967 9.63296C22.6526 9.50258 22.8606 9.29453 22.991 9.03864C23.1392 8.74773 23.1392 8.36691 23.1392 7.60526V3.79737C23.1392 3.03573 23.1392 2.6549 22.991 2.36399C22.8606 2.1081 22.6526 1.90005 22.3967 1.76967C22.1058 1.62144 21.7249 1.62144 20.9633 1.62144H17.1554C16.3938 1.62144 16.0129 1.62144 15.722 1.76967C15.4661 1.90005 15.2581 2.1081 15.1277 2.36399C14.9795 2.6549 14.9795 3.03573 14.9795 3.79737V7.60526C14.9795 8.36691 14.9795 8.74773 15.1277 9.03864C15.2581 9.29453 15.4661 9.50258 15.722 9.63296C16.0129 9.78119 16.3938 9.78119 17.1554 9.78119ZM3.55582 9.78119H7.3637C8.12535 9.78119 8.50617 9.78119 8.79708 9.63296C9.05298 9.50258 9.26102 9.29453 9.39141 9.03864C9.53963 8.74773 9.53963 8.36691 9.53963 7.60526V3.79737C9.53963 3.03573 9.53963 2.6549 9.39141 2.36399C9.26102 2.1081 9.05298 1.90005 8.79708 1.76967C8.50617 1.62144 8.12535 1.62144 7.3637 1.62144H3.55582C2.79417 1.62144 2.41334 1.62144 2.12243 1.76967C1.86654 1.90005 1.65849 2.1081 1.52811 2.36399C1.37988 2.6549 1.37988 3.03573 1.37988 3.79737V7.60526C1.37988 8.36691 1.37988 8.74773 1.52811 9.03864C1.65849 9.29453 1.86654 9.50258 2.12243 9.63296C2.41334 9.78119 2.79417 9.78119 3.55582 9.78119ZM3.55582 23.3808H7.3637C8.12535 23.3808 8.50617 23.3808 8.79708 23.2325C9.05298 23.1022 9.26102 22.8941 9.39141 22.6382C9.53963 22.3473 9.53963 21.9665 9.53963 21.2048V17.397C9.53963 16.6353 9.53963 16.2545 9.39141 15.9636C9.26102 15.7077 9.05298 15.4996 8.79708 15.3693C8.50617 15.221 8.12535 15.221 7.3637 15.221H3.55582C2.79417 15.221 2.41334 15.221 2.12243 15.3693C1.86654 15.4996 1.65849 15.7077 1.52811 15.9636C1.37988 16.2545 1.37988 16.6353 1.37988 17.397V21.2048C1.37988 21.9665 1.37988 22.3473 1.52811 22.6382C1.65849 22.8941 1.86654 23.1022 2.12243 23.2325C2.41334 23.3808 2.79417 23.3808 3.55582 23.3808Z" stroke="#2B2B2B" stroke-opacity="0.8" stroke-width="2.17593" stroke-linecap="round" stroke-linejoin="round"/>
</svg>
