<svg width="27" height="27" viewBox="0 0 27 27" fill="none" xmlns="http://www.w3.org/2000/svg">
<path d="M22.899 1.25906V6.69889M20.1791 3.97897H25.6189M22.899 20.2985V25.7383M20.1791 23.0184H25.6189M10.6594 3.97897L8.66023 9.04783C8.40468 9.69579 8.2769 10.0198 8.08125 10.293C7.90782 10.5351 7.69579 10.7471 7.45364 10.9206C7.18045 11.1162 6.85647 11.244 6.2085 11.4996L1.13965 13.4987L6.2085 15.4978C6.85647 15.7534 7.18045 15.8811 7.45364 16.0768C7.69579 16.2502 7.90782 16.4622 8.08125 16.7044C8.2769 16.9776 8.40468 17.3016 8.66023 17.9495L10.6594 23.0184L12.6585 17.9495C12.914 17.3016 13.0418 16.9776 13.2375 16.7044C13.4109 16.4622 13.6229 16.2502 13.8651 16.0768C14.1383 15.8811 14.4622 15.7534 15.1102 15.4978L20.1791 13.4987L15.1102 11.4996C14.4622 11.244 14.1383 11.1162 13.8651 10.9206C13.6229 10.7471 13.4109 10.5351 13.2375 10.293C13.0418 10.0198 12.914 9.69579 12.6585 9.04783L10.6594 3.97897Z" stroke="white" stroke-width="2.17593" stroke-linecap="round" stroke-linejoin="round"/>
</svg>
