<svg width="28" height="23" viewBox="0 0 28 23" fill="none" xmlns="http://www.w3.org/2000/svg">
<path d="M1.63965 6.3324C1.63965 4.80911 1.63965 4.04746 1.9361 3.46564C2.19687 2.95385 2.61296 2.53776 3.12475 2.27699C3.70657 1.98054 4.46822 1.98054 5.99152 1.98054H10.7167C11.382 1.98054 11.7146 1.98054 12.0276 2.05569C12.3052 2.12232 12.5705 2.23221 12.8138 2.38134C13.0883 2.54955 13.3235 2.78476 13.7939 3.25517L13.9646 3.42582C14.435 3.89624 14.6702 4.13144 14.9447 4.29965C15.1881 4.44878 15.4534 4.55867 15.7309 4.6253C16.0439 4.70045 16.3766 4.70045 17.0418 4.70045H21.767C23.2903 4.70045 24.052 4.70045 24.6338 4.99691C25.1456 5.25768 25.5617 5.67377 25.8224 6.18555C26.1189 6.76738 26.1189 7.52903 26.1189 9.05232V16.6681C26.1189 18.1914 26.1189 18.953 25.8224 19.5349C25.5617 20.0466 25.1456 20.4627 24.6338 20.7235C24.052 21.02 23.2903 21.02 21.767 21.02H5.99152C4.46822 21.02 3.70657 21.02 3.12475 20.7235C2.61296 20.4627 2.19687 20.0466 1.9361 19.5349C1.63965 18.953 1.63965 18.1914 1.63965 16.6681V6.3324Z" stroke="#2B2B2B" stroke-opacity="0.8" stroke-width="2.17593" stroke-linecap="round" stroke-linejoin="round"/>
<path fill-rule="evenodd" clip-rule="evenodd" d="M13.876 9.74854C12.9244 8.68894 11.3374 8.40391 10.145 9.37418C8.95266 10.3445 8.78479 11.9667 9.72116 13.1142C10.2498 13.7621 11.5058 14.8979 12.4994 15.7641C12.9707 16.175 13.2063 16.3804 13.4913 16.4645C13.7343 16.5361 14.0178 16.5361 14.2607 16.4645C14.5457 16.3804 14.7814 16.175 15.2526 15.7641C16.2462 14.8979 17.5022 13.7621 18.0309 13.1142C18.9672 11.9667 18.8199 10.3342 17.607 9.37418C16.3941 8.41412 14.8277 8.68894 13.876 9.74854Z" stroke="#2B2B2B" stroke-opacity="0.8" stroke-width="2.17593" stroke-linecap="round" stroke-linejoin="round"/>
</svg>
